<svg xmlns="http://www.w3.org/2000/svg" viewBox="0 0 800 1000" width="800" height="1000">
  <!-- 背景 -->
  <defs>
    <radialGradient id="bg" cx="50%" cy="50%" r="50%" fx="50%" fy="50%">
      <stop offset="0%" stop-color="#333" />
      <stop offset="100%" stop-color="#000" />
    </radialGradient>
    
    <!-- 绿色矿石渐变 -->
    <linearGradient id="greenGradient" x1="0%" y1="0%" x2="100%" y2="100%">
      <stop offset="0%" stop-color="#CCFFCC" />
      <stop offset="50%" stop-color="#88CC88" />
      <stop offset="100%" stop-color="#006600" />
    </linearGradient>
    
    <!-- 光泽效果 -->
    <filter id="glow" x="-20%" y="-20%" width="140%" height="140%">
      <feGaussianBlur stdDeviation="8" result="blur" />
      <feComposite in="SourceGraphic" in2="blur" operator="over" />
    </filter>
  </defs>
  
  <!-- 背景 -->
  <rect width="800" height="1000" fill="url(#bg)" />
  
  <!-- 绿色矿石 -->
  <g transform="translate(400, 500)" filter="url(#glow)">
    <!-- 主体形状 - 晶体结构 -->
    <g opacity="0.9">
      <!-- 中心晶体 -->
      <path d="M0,-120 L80,-40 L80,40 L0,120 L-80,40 L-80,-40 Z" fill="url(#greenGradient)" />
      
      <!-- 周围晶体 -->
      <path d="M0,-120 L60,-150 L120,-100 L80,-40 Z" fill="#88CC88" opacity="0.8" />
      <path d="M80,-40 L120,-100 L150,-20 L80,40 Z" fill="#66AA66" opacity="0.8" />
      <path d="M80,40 L150,-20 L120,100 L0,120 Z" fill="#448844" opacity="0.8" />
      <path d="M0,120 L120,100 L60,150 L-80,40 Z" fill="#226622" opacity="0.8" />
      <path d="M-80,40 L60,150 L-120,100 L-80,-40 Z" fill="#448844" opacity="0.8" />
      <path d="M-80,-40 L-120,100 L-150,-20 L0,-120 Z" fill="#66AA66" opacity="0.8" />
    </g>
    
    <!-- 内部纹理和不规则性 -->
    <path d="M-40,-60 L40,-60 L40,60 L-40,60 Z" fill="#AADDAA" opacity="0.3" />
    
    <!-- 表面不规则性和裂纹 -->
    <path d="M-60,-90 L60,-90 L60,90 L-60,90 Z" fill="none" stroke="#004400" stroke-width="1" opacity="0.5" />
    <path d="M-30,-100 L30,-100 L30,100 L-30,100 Z" fill="none" stroke="#004400" stroke-width="0.8" opacity="0.4" />
    
    <!-- 光泽高光 -->
    <ellipse cx="-20" cy="-30" rx="40" ry="30" fill="#FFFFFF" opacity="0.2" />
    <ellipse cx="30" cy="40" rx="30" ry="20" fill="#FFFFFF" opacity="0.15" />
  </g>
  
  <!-- 反射效果 -->
  <g transform="translate(400, 800) scale(1, -0.3) skewX(10)" opacity="0.3">
    <path d="M0,-120 L80,-40 L80,40 L0,120 L-80,40 L-80,-40 Z" fill="url(#greenGradient)" />
  </g>
</svg>