<svg xmlns="http://www.w3.org/2000/svg" viewBox="0 0 800 1000" width="800" height="1000">
  <!-- 背景 -->
  <defs>
    <radialGradient id="bg" cx="50%" cy="50%" r="50%" fx="50%" fy="50%">
      <stop offset="0%" stop-color="#333" />
      <stop offset="100%" stop-color="#000" />
    </radialGradient>
    
    <!-- 蓝绿色矿石渐变 -->
    <linearGradient id="tealGradient" x1="0%" y1="0%" x2="100%" y2="100%">
      <stop offset="0%" stop-color="#CCFFFF" />
      <stop offset="50%" stop-color="#00CCCC" />
      <stop offset="100%" stop-color="#006666" />
    </linearGradient>
    
    <!-- 光泽效果 -->
    <filter id="glow" x="-20%" y="-20%" width="140%" height="140%">
      <feGaussianBlur stdDeviation="8" result="blur" />
      <feComposite in="SourceGraphic" in2="blur" operator="over" />
    </filter>
  </defs>
  
  <!-- 背景 -->
  <rect width="800" height="1000" fill="url(#bg)" />
  
  <!-- 蓝绿色矿石 -->
  <g transform="translate(400, 500)" filter="url(#glow)">
    <!-- 主体形状 - 晶体结构 -->
    <g opacity="0.9">
      <!-- 主要晶体群 -->
      <path d="M-100,-80 L0,-150 L100,-80 L150,0 L100,80 L0,150 L-100,80 L-150,0 Z" fill="url(#tealGradient)" />
      
      <!-- 次要晶体 -->
      <path d="M-50,-40 L0,-75 L50,-40 L75,0 L50,40 L0,75 L-50,40 L-75,0 Z" fill="#00AAAA" opacity="0.7" />
      
      <!-- 小晶体 -->
      <path d="M-25,-20 L0,-35 L25,-20 L35,0 L25,20 L0,35 L-25,20 L-35,0 Z" fill="#00DDDD" opacity="0.6" />
    </g>
    
    <!-- 晶体边缘 -->
    <path d="M-100,-80 L0,-150 L100,-80 L150,0 L100,80 L0,150 L-100,80 L-150,0 Z" fill="none" stroke="#004444" stroke-width="2" opacity="0.7" />
    <path d="M-50,-40 L0,-75 L50,-40 L75,0 L50,40 L0,75 L-50,40 L-75,0 Z" fill="none" stroke="#004444" stroke-width="1.5" opacity="0.6" />
    
    <!-- 内部纹理 -->
    <line x1="-100" y1="-80" x2="100" y2="80" stroke="#008888" stroke-width="1" opacity="0.5" />
    <line x1="100" y1="-80" x2="-100" y2="80" stroke="#008888" stroke-width="1" opacity="0.5" />
    <line x1="0" y1="-150" x2="0" y2="150" stroke="#008888" stroke-width="1" opacity="0.5" />
    <line x1="-150" y1="0" x2="150" y2="0" stroke="#008888" stroke-width="1" opacity="0.5" />
    
    <!-- 光泽高光 -->
    <ellipse cx="-30" cy="-40" rx="50" ry="30" fill="#FFFFFF" opacity="0.2" />
    <ellipse cx="40" cy="50" rx="40" ry="25" fill="#FFFFFF" opacity="0.15" />
  </g>
  
  <!-- 反射效果 -->
  <g transform="translate(400, 800) scale(1, -0.3) skewX(10)" opacity="0.3">
    <path d="M-100,-80 L0,-150 L100,-80 L150,0 L100,80 L0,150 L-100,80 L-150,0 Z" fill="url(#tealGradient)" />
  </g>
</svg>