<svg xmlns="http://www.w3.org/2000/svg" viewBox="0 0 800 1000" width="800" height="1000">
  <!-- 背景 -->
  <defs>
    <radialGradient id="bg" cx="50%" cy="50%" r="50%" fx="50%" fy="50%">
      <stop offset="0%" stop-color="#333" />
      <stop offset="100%" stop-color="#000" />
    </radialGradient>
    
    <!-- 琥珀色渐变 -->
    <linearGradient id="amberGradient" x1="0%" y1="0%" x2="100%" y2="100%">
      <stop offset="0%" stop-color="#FFD700" />
      <stop offset="50%" stop-color="#FFA500" />
      <stop offset="100%" stop-color="#8B4513" />
    </linearGradient>
    
    <!-- 光泽效果 -->
    <filter id="glow" x="-20%" y="-20%" width="140%" height="140%">
      <feGaussianBlur stdDeviation="10" result="blur" />
      <feComposite in="SourceGraphic" in2="blur" operator="over" />
    </filter>
  </defs>
  
  <!-- 背景 -->
  <rect width="800" height="1000" fill="url(#bg)" />
  
  <!-- 琥珀矿石 -->
  <g transform="translate(400, 500)" filter="url(#glow)">
    <!-- 主体形状 -->
    <path d="M-100,-200 L50,-180 L150,-50 L100,150 L-50,200 L-150,50 Z" fill="url(#amberGradient)" />
    
    <!-- 内部纹理和不规则性 -->
    <path d="M-80,-150 L30,-140 L120,-30 L80,120 L-30,160 L-120,30 Z" fill="#FFA500" opacity="0.7" />
    <path d="M-60,-100 L20,-90 L80,-10 L50,80 L-20,110 L-80,20 Z" fill="#FFD700" opacity="0.5" />
    
    <!-- 表面不规则性和裂纹 -->
    <path d="M-90,-170 L-40,-120 L30,-130 L70,-80 L90,-20 L70,60 L20,100 L-30,90 L-70,40 Z" fill="none" stroke="#8B4513" stroke-width="2" opacity="0.6" />
    <path d="M-20,-150 L40,-130 L60,-70 L40,20 L0,60 L-40,40 L-60,-20 Z" fill="none" stroke="#8B4513" stroke-width="1.5" opacity="0.5" />
    
    <!-- 光泽高光 -->
    <ellipse cx="-30" cy="-80" rx="60" ry="40" fill="#FFFFFF" opacity="0.2" />
    <ellipse cx="40" cy="30" rx="40" ry="30" fill="#FFFFFF" opacity="0.15" />
    
    <!-- 内部包裹物 -->
    <circle cx="-10" cy="-40" r="15" fill="#8B4513" opacity="0.7" />
    <circle cx="30" cy="50" r="10" fill="#8B4513" opacity="0.6" />
    <circle cx="-40" cy="70" r="12" fill="#8B4513" opacity="0.5" />
  </g>
  
  <!-- 反射效果 -->
  <g transform="translate(400, 800) scale(1, -0.3) skewX(10)" opacity="0.3">
    <path d="M-100,-200 L50,-180 L150,-50 L100,150 L-50,200 L-150,50 Z" fill="url(#amberGradient)" />
  </g>
</svg>