<svg width="800" height="1000" xmlns="http://www.w3.org/2000/svg">
  <!-- 山水之间 -->
  <defs>
    <linearGradient id="sky" x1="0%" y1="0%" x2="0%" y2="70%">
      <stop offset="0%" stop-color="#87ceeb" />
      <stop offset="100%" stop-color="#e6f7ff" />
    </linearGradient>
    <linearGradient id="mountain1" x1="0%" y1="0%" x2="0%" y2="100%">
      <stop offset="0%" stop-color="#4d4d4d" />
      <stop offset="100%" stop-color="#1a1a1a" />
    </linearGradient>
    <linearGradient id="mountain2" x1="0%" y1="0%" x2="0%" y2="100%">
      <stop offset="0%" stop-color="#666666" />
      <stop offset="100%" stop-color="#333333" />
    </linearGradient>
    <linearGradient id="mountain3" x1="0%" y1="0%" x2="0%" y2="100%">
      <stop offset="0%" stop-color="#808080" />
      <stop offset="100%" stop-color="#4d4d4d" />
    </linearGradient>
    <linearGradient id="water" x1="0%" y1="0%" x2="0%" y2="100%">
      <stop offset="0%" stop-color="#b3d9ff" />
      <stop offset="100%" stop-color="#80bfff" />
    </linearGradient>
  </defs>
  
  <!-- 背景天空 -->
  <rect width="100%" height="100%" fill="url(#sky)" />
  
  <!-- 远山 -->
  <polygon points="0,400 100,350 200,380 300,340 400,370 500,330 600,360 700,340 800,380 800,600 0,600" fill="url(#mountain3)" />
  
  <!-- 中层山 -->
  <polygon points="0,450 80,420 160,440 240,410 320,450 400,400 480,430 560,410 640,440 720,420 800,450 800,700 0,700" fill="url(#mountain2)" />
  
  <!-- 近山 -->
  <polygon points="0,500 100,470 200,510 300,480 400,520 500,470 600,510 700,480 800,500 800,800 0,800" fill="url(#mountain1)" />
  
  <!-- 水面 -->
  <rect x="0" y="800" width="800" height="200" fill="url(#water)" />
  
  <!-- 云层 -->
  <g fill="#ffffff" opacity="0.8">
    <ellipse cx="150" cy="150" rx="70" ry="30" />
    <ellipse cx="200" cy="140" rx="50" ry="20" />
    <ellipse cx="250" cy="160" rx="60" ry="25" />
    
    <ellipse cx="550" cy="180" rx="80" ry="30" />
    <ellipse cx="600" cy="170" rx="60" ry="25" />
    <ellipse cx="650" cy="190" rx="70" ry="20" />
    
    <ellipse cx="350" cy="100" rx="60" ry="20" />
    <ellipse cx="400" cy="90" rx="40" ry="15" />
    <ellipse cx="450" cy="110" rx="50" ry="20" />
  </g>
  
  <!-- 山顶云雾 -->
  <g fill="#ffffff" opacity="0.6">
    <ellipse cx="200" cy="380" rx="100" ry="20" />
    <ellipse cx="400" cy="370" rx="120" ry="25" />
    <ellipse cx="600" cy="360" rx="90" ry="20" />
    <ellipse cx="300" cy="410" rx="80" ry="15" />
    <ellipse cx="500" cy="400" rx="100" ry="20" />
    <ellipse cx="700" cy="420" rx="70" ry="15" />
  </g>
  
  <!-- 太阳 -->
  <circle cx="650" cy="150" r="60" fill="#ffcc00" opacity="0.8" />
  <circle cx="650" cy="150" r="70" fill="#ffcc00" opacity="0.3" />
  <circle cx="650" cy="150" r="80" fill="#ffcc00" opacity="0.1" />
  
  <!-- 水面反射 -->
  <g opacity="0.5">
    <polygon points="100,800 100,850 200,850 200,800" fill="#1a1a1a" />
    <polygon points="300,800 300,840 400,840 400,800" fill="#333333" />
    <polygon points="500,800 500,860 600,860 600,800" fill="#1a1a1a" />
    <polygon points="650,800 650,830 750,830 750,800" fill="#333333" />
  </g>
  
  <!-- 小船 -->
  <g transform="translate(300, 850)">
    <polygon points="0,0 50,0 40,-10 10,-10" fill="#4d2600" />
    <rect x="20" y="-30" width="2" height="20" fill="#4d2600" />
    <polygon points="22,-30 22,-10 35,-20" fill="#ffffff" />
  </g>
</svg>