<svg width="800" height="1000" xmlns="http://www.w3.org/2000/svg">
  <!-- 城市夜景 -->
  <defs>
    <linearGradient id="sky" x1="0%" y1="0%" x2="0%" y2="100%">
      <stop offset="0%" stop-color="#0a1a2a" />
      <stop offset="100%" stop-color="#1a3a5a" />
    </linearGradient>
  </defs>
  
  <!-- 背景 -->
  <rect width="100%" height="100%" fill="url(#sky)" />
  
  <!-- 城市轮廓 -->
  <g fill="#000000">
    <!-- 建筑群 -->
    <rect x="50" y="400" width="100" height="600" />
    <rect x="170" y="500" width="80" height="500" />
    <rect x="270" y="350" width="120" height="650" />
    <rect x="410" y="450" width="90" height="550" />
    <rect x="520" y="300" width="150" height="700" />
    <rect x="690" y="550" width="70" height="450" />
    
    <!-- 尖顶建筑 -->
    <polygon points="520,300 595,200 670,300" />
    <polygon points="270,350 330,250 390,350" />
  </g>
  
  <!-- 建筑物窗户 -->
  <g fill="#ffcc00" opacity="0.8">
    <!-- 第一栋建筑窗户 -->
    <rect x="65" y="430" width="15" height="20" />
    <rect x="95" y="430" width="15" height="20" />
    <rect x="65" y="470" width="15" height="20" />
    <rect x="95" y="470" width="15" height="20" />
    <rect x="65" y="510" width="15" height="20" />
    <rect x="95" y="510" width="15" height="20" />
    <rect x="65" y="550" width="15" height="20" />
    <rect x="95" y="550" width="15" height="20" />
    <rect x="65" y="590" width="15" height="20" />
    <rect x="95" y="590" width="15" height="20" />
    <rect x="65" y="630" width="15" height="20" />
    <rect x="95" y="630" width="15" height="20" />
    
    <!-- 第二栋建筑窗户 -->
    <rect x="185" y="530" width="15" height="20" />
    <rect x="215" y="530" width="15" height="20" />
    <rect x="185" y="570" width="15" height="20" />
    <rect x="215" y="570" width="15" height="20" />
    <rect x="185" y="610" width="15" height="20" />
    <rect x="215" y="610" width="15" height="20" />
    <rect x="185" y="650" width="15" height="20" />
    <rect x="215" y="650" width="15" height="20" />
    
    <!-- 第三栋建筑窗户 -->
    <rect x="290" y="380" width="15" height="20" />
    <rect x="320" y="380" width="15" height="20" />
    <rect x="350" y="380" width="15" height="20" />
    <rect x="290" y="420" width="15" height="20" />
    <rect x="320" y="420" width="15" height="20" />
    <rect x="350" y="420" width="15" height="20" />
    <rect x="290" y="460" width="15" height="20" />
    <rect x="320" y="460" width="15" height="20" />
    <rect x="350" y="460" width="15" height="20" />
    <rect x="290" y="500" width="15" height="20" />
    <rect x="320" y="500" width="15" height="20" />
    <rect x="350" y="500" width="15" height="20" />
    
    <!-- 第四栋建筑窗户 -->
    <rect x="425" y="480" width="15" height="20" />
    <rect x="455" y="480" width="15" height="20" />
    <rect x="425" y="520" width="15" height="20" />
    <rect x="455" y="520" width="15" height="20" />
    <rect x="425" y="560" width="15" height="20" />
    <rect x="455" y="560" width="15" height="20" />
    <rect x="425" y="600" width="15" height="20" />
    <rect x="455" y="600" width="15" height="20" />
    
    <!-- 第五栋建筑窗户 -->
    <rect x="540" y="330" width="15" height="20" />
    <rect x="570" y="330" width="15" height="20" />
    <rect x="600" y="330" width="15" height="20" />
    <rect x="630" y="330" width="15" height="20" />
    <rect x="540" y="370" width="15" height="20" />
    <rect x="570" y="370" width="15" height="20" />
    <rect x="600" y="370" width="15" height="20" />
    <rect x="630" y="370" width="15" height="20" />
    <rect x="540" y="410" width="15" height="20" />
    <rect x="570" y="410" width="15" height="20" />
    <rect x="600" y="410" width="15" height="20" />
    <rect x="630" y="410" width="15" height="20" />
    
    <!-- 第六栋建筑窗户 -->
    <rect x="705" y="580" width="15" height="20" />
    <rect x="735" y="580" width="15" height="20" />
    <rect x="705" y="620" width="15" height="20" />
    <rect x="735" y="620" width="15" height="20" />
    <rect x="705" y="660" width="15" height="20" />
    <rect x="735" y="660" width="15" height="20" />
  </g>
  
  <!-- 水面反射 -->
  <rect x="0" y="1000" width="800" height="0" fill="#1a3a5a" opacity="0.7" />
  
  <!-- 星星 -->
  <g fill="#ffffff">
    <circle cx="100" cy="100" r="1" />
    <circle cx="200" cy="150" r="1" />
    <circle cx="300" cy="80" r="1" />
    <circle cx="400" cy="120" r="1" />
    <circle cx="500" cy="90" r="1" />
    <circle cx="600" cy="130" r="1" />
    <circle cx="700" cy="110" r="1" />
    <circle cx="150" cy="200" r="1" />
    <circle cx="250" cy="180" r="1" />
    <circle cx="350" cy="220" r="1" />
    <circle cx="450" cy="170" r="1" />
    <circle cx="550" cy="210" r="1" />
    <circle cx="650" cy="190" r="1" />
    <circle cx="750" cy="230" r="1" />
  </g>
  
  <!-- 月亮 -->
  <circle cx="650" cy="150" r="50" fill="#ffffff" opacity="0.8" />
  
  <!-- 灯光效果 -->
  <g opacity="0.1">
    <circle cx="100" cy="400" r="200" fill="#ffcc00" />
    <circle cx="300" cy="350" r="150" fill="#ffcc00" />
    <circle cx="500" cy="300" r="180" fill="#ffcc00" />
    <circle cx="700" cy="550" r="120" fill="#ffcc00" />
  </g>
</svg>