<svg width="800" height="1000" xmlns="http://www.w3.org/2000/svg">
  <!-- 自然之美 -->
  <defs>
    <linearGradient id="sky" x1="0%" y1="0%" x2="0%" y2="100%">
      <stop offset="0%" stop-color="#4da6ff" />
      <stop offset="100%" stop-color="#80bfff" />
    </linearGradient>
    <linearGradient id="grass" x1="0%" y1="0%" x2="0%" y2="100%">
      <stop offset="0%" stop-color="#339933" />
      <stop offset="100%" stop-color="#267326" />
    </linearGradient>
    <linearGradient id="mountain" x1="0%" y1="0%" x2="0%" y2="100%">
      <stop offset="0%" stop-color="#996633" />
      <stop offset="100%" stop-color="#663300" />
    </linearGradient>
    <linearGradient id="water" x1="0%" y1="0%" x2="0%" y2="100%">
      <stop offset="0%" stop-color="#66ccff" />
      <stop offset="100%" stop-color="#3399ff" />
    </linearGradient>
  </defs>
  
  <!-- 背景天空 -->
  <rect width="100%" height="100%" fill="url(#sky)" />
  
  <!-- 远山 -->
  <polygon points="0,300 100,250 200,280 300,240 400,270 500,230 600,260 700,240 800,280 800,500 0,500" fill="url(#mountain)" opacity="0.7" />
  
  <!-- 草地 -->
  <rect x="0" y="500" width="800" height="500" fill="url(#grass)" />
  
  <!-- 湖泊 -->
  <ellipse cx="400" cy="700" rx="300" ry="150" fill="url(#water)" />
  
  <!-- 太阳 -->
  <circle cx="650" cy="150" r="60" fill="#ffcc00" />
  <circle cx="650" cy="150" r="70" fill="#ffcc00" opacity="0.5" />
  <circle cx="650" cy="150" r="80" fill="#ffcc00" opacity="0.3" />
  <circle cx="650" cy="150" r="90" fill="#ffcc00" opacity="0.1" />
  
  <!-- 云朵 -->
  <g fill="#ffffff" opacity="0.8">
    <ellipse cx="150" cy="150" rx="70" ry="30" />
    <ellipse cx="200" cy="140" rx="50" ry="20" />
    <ellipse cx="250" cy="160" rx="60" ry="25" />
    
    <ellipse cx="550" cy="200" rx="60" ry="25" />
    <ellipse cx="600" cy="190" rx="40" ry="20" />
    <ellipse cx="650" cy="210" rx="50" ry="15" />
  </g>
  
  <!-- 树木 -->
  <g transform="translate(150, 450)">
    <rect x="-10" y="0" width="20" height="80" fill="#663300" />
    <ellipse cx="0" cy="-30" rx="50" ry="60" fill="#267326" />
  </g>
  
  <g transform="translate(250, 480)">
    <rect x="-8" y="0" width="16" height="60" fill="#663300" />
    <ellipse cx="0" cy="-20" rx="40" ry="50" fill="#339933" />
  </g>
  
  <g transform="translate(600, 470)">
    <rect x="-12" y="0" width="24" height="90" fill="#663300" />
    <ellipse cx="0" cy="-40" rx="60" ry="70" fill="#267326" />
  </g>
  
  <g transform="translate(700, 490)">
    <rect x="-9" y="0" width="18" height="70" fill="#663300" />
    <ellipse cx="0" cy="-30" rx="45" ry="55" fill="#339933" />
  </g>
  
  <!-- 花朵 -->
  <g transform="translate(180, 600)">
    <circle cx="0" cy="0" r="10" fill="#ff3399" />
    <circle cx="10" cy="-5" r="8" fill="#ff3399" />
    <circle cx="5" cy="-15" r="8" fill="#ff3399" />
    <circle cx="-5" cy="-15" r="8" fill="#ff3399" />
    <circle cx="-10" cy="-5" r="8" fill="#ff3399" />
    <circle cx="0" cy="0" r="5" fill="#ffcc00" />
    <rect x="-2" y="10" width="4" height="20" fill="#339933" />
  </g>
  
  <g transform="translate(220, 620)">
    <circle cx="0" cy="0" r="8" fill="#cc99ff" />
    <circle cx="8" cy="-4" r="6" fill="#cc99ff" />
    <circle cx="4" cy="-12" r="6" fill="#cc99ff" />
    <circle cx="-4" cy="-12" r="6" fill="#cc99ff" />
    <circle cx="-8" cy="-4" r="6" fill="#cc99ff" />
    <circle cx="0" cy="0" r="4" fill="#ffcc00" />
    <rect x="-1.5" y="8" width="3" height="15" fill="#339933" />
  </g>
  
  <g transform="translate(650, 580)">
    <circle cx="0" cy="0" r="12" fill="#ff6600" />
    <circle cx="12" cy="-6" r="10" fill="#ff6600" />
    <circle cx="6" cy="-18" r="10" fill="#ff6600" />
    <circle cx="-6" cy="-18" r="10" fill="#ff6600" />
    <circle cx="-12" cy="-6" r="10" fill="#ff6600" />
    <circle cx="0" cy="0" r="6" fill="#ffcc00" />
    <rect x="-2.5" y="12" width="5" height="25" fill="#339933" />
  </g>
  
  <!-- 蝴蝶 -->
  <g transform="translate(300, 550)">
    <ellipse cx="-10" cy="-5" rx="15" ry="10" fill="#ff99cc" />
    <ellipse cx="10" cy="-5" rx="15" ry="10" fill="#ff99cc" />
    <rect x="-2" y="-5" width="4" height="15" fill="#333333" />
    <circle cx="0" cy="-8" r="3" fill="#333333" />
  </g>
  
  <g transform="translate(500, 600)">
    <ellipse cx="-8" cy="-4" rx="12" ry="8" fill="#99ccff" />
    <ellipse cx="8" cy="-4" rx="12" ry="8" fill="#99ccff" />
    <rect x="-1.5" y="-4" width="3" height="12" fill="#333333" />
    <circle cx="0" cy="-6" r="2" fill="#333333" />
  </g>
  
  <!-- 湖面反射 -->
  <g opacity="0.6">
    <ellipse cx="400" cy="700" rx="280" ry="140" fill="none" stroke="#ffffff" stroke-width="1" />
    <ellipse cx="400" cy="700" rx="260" ry="130" fill="none" stroke="#ffffff" stroke-width="1" />
    <ellipse cx="400" cy="700" rx="240" ry="120" fill="none" stroke="#ffffff" stroke-width="1" />
  </g>
  
  <!-- 鸟 -->
  <g transform="translate(200, 200)">
    <path d="M0,0 C5,-5 10,-5 15,0 C10,5 5,5 0,0 Z" fill="#333333" />
  </g>
  
  <g transform="translate(250, 180)">
    <path d="M0,0 C4,-4 8,-4 12,0 C8,4 4,4 0,0 Z" fill="#333333" />
  </g>
  
  <g transform="translate(300, 220)">
    <path d="M0,0 C6,-6 12,-6 18,0 C12,6 6,6 0,0 Z" fill="#333333" />
  </g>
</svg>