<svg width="800" height="800" xmlns="http://www.w3.org/2000/svg">
  <!-- 背景 -->
  <rect width="100%" height="100%" fill="#f5f5f5" />
  
  <!-- 人物轮廓 -->
  <g transform="translate(400, 400)" fill="#333">
    <!-- 头部 -->
    <circle cx="0" cy="-150" r="120" />
    
    <!-- 身体 -->
    <path d="M-100,-30 L-150,200 L150,200 L100,-30 Z" />
    
    <!-- 相机 -->
    <g transform="translate(0, 50)">
      <rect x="-60" y="-30" width="120" height="80" rx="10" fill="#555" />
      <circle cx="0" cy="10" r="30" fill="#333" stroke="#555" stroke-width="5" />
      <rect x="-40" y="-40" width="80" height="20" rx="5" fill="#555" />
      <circle cx="40" cy="-20" r="8" fill="#d4af37" />
    </g>
  </g>
  
  <!-- 装饰元素 -->
  <g opacity="0.1">
    <circle cx="150" cy="150" r="50" fill="#d4af37" />
    <circle cx="650" cy="650" r="70" fill="#d4af37" />
    <circle cx="700" cy="200" r="40" fill="#d4af37" />
    <circle cx="200" cy="600" r="60" fill="#d4af37" />
  </g>
  
  <!-- 抽象线条 -->
  <g stroke="#333" stroke-width="2" opacity="0.1">
    <line x1="0" y1="0" x2="800" y2="800" />
    <line x1="800" y1="0" x2="0" y2="800" />
    <line x1="400" y1="0" x2="400" y2="800" />
    <line x1="0" y1="400" x2="800" y2="400" />
  </g>
</svg>